<mxfile host="app.diagrams.net" agent="Mozilla/5.0 (Windows NT 10.0; Win64; x64) AppleWebKit/537.36 (KHTML, like Gecko) Chrome/131.0.0.0 Safari/537.36" version="24.9.1">
  <diagram name="Trang-1" id="BVFBIw1P5_Cg4yFc-Cm5">
    <mxGraphModel dx="1050" dy="1691" grid="1" gridSize="10" guides="1" tooltips="1" connect="1" arrows="1" fold="1" page="1" pageScale="1" pageWidth="827" pageHeight="1169" math="0" shadow="0">
      <root>
        <mxCell id="0" />
        <mxCell id="1" parent="0" />
        <mxCell id="TOuo_Lpqamee4O4P2Cuv-3" style="edgeStyle=orthogonalEdgeStyle;rounded=0;orthogonalLoop=1;jettySize=auto;html=1;entryX=0;entryY=0.5;entryDx=0;entryDy=0;" edge="1" parent="1" source="TOuo_Lpqamee4O4P2Cuv-1" target="TOuo_Lpqamee4O4P2Cuv-2">
          <mxGeometry relative="1" as="geometry" />
        </mxCell>
        <mxCell id="TOuo_Lpqamee4O4P2Cuv-1" value="Quản lý" style="shape=umlActor;verticalLabelPosition=bottom;verticalAlign=top;html=1;outlineConnect=0;" vertex="1" parent="1">
          <mxGeometry x="80" y="110" width="30" height="60" as="geometry" />
        </mxCell>
        <mxCell id="TOuo_Lpqamee4O4P2Cuv-2" value="Quản lý nhân viên" style="ellipse;whiteSpace=wrap;html=1;" vertex="1" parent="1">
          <mxGeometry x="190" y="105" width="140" height="70" as="geometry" />
        </mxCell>
        <mxCell id="TOuo_Lpqamee4O4P2Cuv-4" value="Extend" style="html=1;verticalAlign=bottom;endArrow=open;dashed=1;endSize=8;curved=0;rounded=0;" edge="1" parent="1" source="TOuo_Lpqamee4O4P2Cuv-5" target="TOuo_Lpqamee4O4P2Cuv-2">
          <mxGeometry relative="1" as="geometry">
            <mxPoint x="440" y="110" as="sourcePoint" />
            <mxPoint x="360" y="110" as="targetPoint" />
          </mxGeometry>
        </mxCell>
        <mxCell id="TOuo_Lpqamee4O4P2Cuv-5" value="Thêm nhân viên" style="ellipse;whiteSpace=wrap;html=1;" vertex="1" parent="1">
          <mxGeometry x="420" y="-35" width="140" height="70" as="geometry" />
        </mxCell>
        <mxCell id="TOuo_Lpqamee4O4P2Cuv-6" value="Sửa nhân viên" style="ellipse;whiteSpace=wrap;html=1;" vertex="1" parent="1">
          <mxGeometry x="420" y="58" width="140" height="70" as="geometry" />
        </mxCell>
        <mxCell id="TOuo_Lpqamee4O4P2Cuv-7" value="Extend" style="html=1;verticalAlign=bottom;endArrow=open;dashed=1;endSize=8;curved=0;rounded=0;" edge="1" parent="1" source="TOuo_Lpqamee4O4P2Cuv-6" target="TOuo_Lpqamee4O4P2Cuv-2">
          <mxGeometry relative="1" as="geometry">
            <mxPoint x="451" y="93" as="sourcePoint" />
            <mxPoint x="329" y="131" as="targetPoint" />
          </mxGeometry>
        </mxCell>
        <mxCell id="TOuo_Lpqamee4O4P2Cuv-8" value="Xóa nhân viên" style="ellipse;whiteSpace=wrap;html=1;" vertex="1" parent="1">
          <mxGeometry x="420" y="152" width="140" height="70" as="geometry" />
        </mxCell>
        <mxCell id="TOuo_Lpqamee4O4P2Cuv-9" value="Extend" style="html=1;verticalAlign=bottom;endArrow=open;dashed=1;endSize=8;curved=0;rounded=0;" edge="1" parent="1" source="TOuo_Lpqamee4O4P2Cuv-8" target="TOuo_Lpqamee4O4P2Cuv-2">
          <mxGeometry relative="1" as="geometry">
            <mxPoint x="441" y="168" as="sourcePoint" />
            <mxPoint x="339" y="157" as="targetPoint" />
          </mxGeometry>
        </mxCell>
        <mxCell id="TOuo_Lpqamee4O4P2Cuv-10" value="Extend" style="html=1;verticalAlign=bottom;endArrow=open;dashed=1;endSize=8;curved=0;rounded=0;" edge="1" parent="1" source="TOuo_Lpqamee4O4P2Cuv-11" target="TOuo_Lpqamee4O4P2Cuv-2">
          <mxGeometry relative="1" as="geometry">
            <mxPoint x="459" y="241" as="sourcePoint" />
            <mxPoint x="321" y="174" as="targetPoint" />
          </mxGeometry>
        </mxCell>
        <mxCell id="TOuo_Lpqamee4O4P2Cuv-11" value="Duyệt đơn xin nghỉ" style="ellipse;whiteSpace=wrap;html=1;" vertex="1" parent="1">
          <mxGeometry x="420" y="245" width="140" height="70" as="geometry" />
        </mxCell>
      </root>
    </mxGraphModel>
  </diagram>
</mxfile>
